<mxfile host="app.diagrams.net" modified="2023-07-03T06:26:49.208Z" agent="Mozilla/5.0 (Windows NT 6.1; Win64; x64) AppleWebKit/537.36 (KHTML, like Gecko) Chrome/109.0.0.0 Safari/537.36 Edg/109.0.1518.115" etag="UpjNtcWy4ftOQxkAnmhV" version="21.3.3" type="google">
  <diagram id="R2lEEEUBdFMjLlhIrx00" name="Page-1">
    <mxGraphModel grid="1" page="1" gridSize="10" guides="1" tooltips="1" connect="1" arrows="1" fold="1" pageScale="1" pageWidth="850" pageHeight="1100" math="0" shadow="0" extFonts="Permanent Marker^https://fonts.googleapis.com/css?family=Permanent+Marker">
      <root>
        <mxCell id="0" />
        <mxCell id="1" parent="0" />
        <mxCell id="DRS--LTavIpqSw1HXCrO-1" value="&lt;b&gt;Asociación&lt;/b&gt;" style="swimlane;fontStyle=0;align=center;verticalAlign=top;childLayout=stackLayout;horizontal=1;startSize=60;horizontalStack=0;resizeParent=1;resizeParentMax=0;resizeLast=0;collapsible=0;marginBottom=0;html=1;whiteSpace=wrap;" vertex="1" parent="1">
          <mxGeometry x="620" y="140" width="140" height="148" as="geometry" />
        </mxCell>
        <mxCell id="DRS--LTavIpqSw1HXCrO-2" value="Atributos" style="text;html=1;strokeColor=none;fillColor=none;align=center;verticalAlign=middle;spacingLeft=4;spacingRight=4;overflow=hidden;rotatable=0;points=[[0,0.5],[1,0.5]];portConstraint=eastwest;whiteSpace=wrap;" vertex="1" parent="DRS--LTavIpqSw1HXCrO-1">
          <mxGeometry y="60" width="140" height="20" as="geometry" />
        </mxCell>
        <mxCell id="DRS--LTavIpqSw1HXCrO-3" value="+id: integer" style="text;html=1;strokeColor=none;fillColor=none;align=left;verticalAlign=middle;spacingLeft=4;spacingRight=4;overflow=hidden;rotatable=0;points=[[0,0.5],[1,0.5]];portConstraint=eastwest;whiteSpace=wrap;" vertex="1" parent="DRS--LTavIpqSw1HXCrO-1">
          <mxGeometry y="80" width="140" height="20" as="geometry" />
        </mxCell>
        <mxCell id="DRS--LTavIpqSw1HXCrO-6" value="" style="line;strokeWidth=1;fillColor=none;align=left;verticalAlign=middle;spacingTop=-1;spacingLeft=3;spacingRight=3;rotatable=0;labelPosition=right;points=[];portConstraint=eastwest;" vertex="1" parent="DRS--LTavIpqSw1HXCrO-1">
          <mxGeometry y="100" width="140" height="8" as="geometry" />
        </mxCell>
        <mxCell id="DRS--LTavIpqSw1HXCrO-7" value="operación" style="text;html=1;strokeColor=none;fillColor=none;align=center;verticalAlign=middle;spacingLeft=4;spacingRight=4;overflow=hidden;rotatable=0;points=[[0,0.5],[1,0.5]];portConstraint=eastwest;whiteSpace=wrap;" vertex="1" parent="DRS--LTavIpqSw1HXCrO-1">
          <mxGeometry y="108" width="140" height="20" as="geometry" />
        </mxCell>
        <mxCell id="DRS--LTavIpqSw1HXCrO-8" value="post()" style="text;html=1;strokeColor=none;fillColor=none;align=left;verticalAlign=middle;spacingLeft=4;spacingRight=4;overflow=hidden;rotatable=0;points=[[0,0.5],[1,0.5]];portConstraint=eastwest;whiteSpace=wrap;" vertex="1" parent="DRS--LTavIpqSw1HXCrO-1">
          <mxGeometry y="128" width="140" height="20" as="geometry" />
        </mxCell>
        <mxCell id="DRS--LTavIpqSw1HXCrO-9" value="&lt;b&gt;Asociación Final&lt;/b&gt;" style="swimlane;fontStyle=0;align=center;verticalAlign=top;childLayout=stackLayout;horizontal=1;startSize=60;horizontalStack=0;resizeParent=1;resizeParentMax=0;resizeLast=0;collapsible=0;marginBottom=0;html=1;whiteSpace=wrap;" vertex="1" parent="1">
          <mxGeometry x="190" y="80" width="140" height="328" as="geometry" />
        </mxCell>
        <mxCell id="DRS--LTavIpqSw1HXCrO-10" value="Atributos" style="text;html=1;strokeColor=none;fillColor=none;align=center;verticalAlign=middle;spacingLeft=4;spacingRight=4;overflow=hidden;rotatable=0;points=[[0,0.5],[1,0.5]];portConstraint=eastwest;whiteSpace=wrap;" vertex="1" parent="DRS--LTavIpqSw1HXCrO-9">
          <mxGeometry y="60" width="140" height="20" as="geometry" />
        </mxCell>
        <mxCell id="DRS--LTavIpqSw1HXCrO-11" value="+id: integer" style="text;html=1;strokeColor=none;fillColor=none;align=left;verticalAlign=middle;spacingLeft=4;spacingRight=4;overflow=hidden;rotatable=0;points=[[0,0.5],[1,0.5]];portConstraint=eastwest;whiteSpace=wrap;" vertex="1" parent="DRS--LTavIpqSw1HXCrO-9">
          <mxGeometry y="80" width="140" height="20" as="geometry" />
        </mxCell>
        <mxCell id="DRS--LTavIpqSw1HXCrO-12" value="+names: string" style="text;html=1;strokeColor=none;fillColor=none;align=left;verticalAlign=middle;spacingLeft=4;spacingRight=4;overflow=hidden;rotatable=0;points=[[0,0.5],[1,0.5]];portConstraint=eastwest;fontColor=#808080;whiteSpace=wrap;" vertex="1" parent="DRS--LTavIpqSw1HXCrO-9">
          <mxGeometry y="100" width="140" height="20" as="geometry" />
        </mxCell>
        <mxCell id="DRS--LTavIpqSw1HXCrO-18" value="+lastnames: string" style="text;html=1;strokeColor=none;fillColor=none;align=left;verticalAlign=middle;spacingLeft=4;spacingRight=4;overflow=hidden;rotatable=0;points=[[0,0.5],[1,0.5]];portConstraint=eastwest;fontColor=#808080;whiteSpace=wrap;" vertex="1" parent="DRS--LTavIpqSw1HXCrO-9">
          <mxGeometry y="120" width="140" height="20" as="geometry" />
        </mxCell>
        <mxCell id="DRS--LTavIpqSw1HXCrO-19" value="+typeid: enum" style="text;html=1;strokeColor=none;fillColor=none;align=left;verticalAlign=middle;spacingLeft=4;spacingRight=4;overflow=hidden;rotatable=0;points=[[0,0.5],[1,0.5]];portConstraint=eastwest;fontColor=#808080;whiteSpace=wrap;" vertex="1" parent="DRS--LTavIpqSw1HXCrO-9">
          <mxGeometry y="140" width="140" height="20" as="geometry" />
        </mxCell>
        <mxCell id="DRS--LTavIpqSw1HXCrO-46" value="+numberid; integer" style="text;html=1;strokeColor=none;fillColor=none;align=left;verticalAlign=middle;spacingLeft=4;spacingRight=4;overflow=hidden;rotatable=0;points=[[0,0.5],[1,0.5]];portConstraint=eastwest;fontColor=#808080;whiteSpace=wrap;" vertex="1" parent="DRS--LTavIpqSw1HXCrO-9">
          <mxGeometry y="160" width="140" height="20" as="geometry" />
        </mxCell>
        <mxCell id="DRS--LTavIpqSw1HXCrO-20" value="+telephone: integer" style="text;html=1;strokeColor=none;fillColor=none;align=left;verticalAlign=middle;spacingLeft=4;spacingRight=4;overflow=hidden;rotatable=0;points=[[0,0.5],[1,0.5]];portConstraint=eastwest;fontColor=#808080;whiteSpace=wrap;" vertex="1" parent="DRS--LTavIpqSw1HXCrO-9">
          <mxGeometry y="180" width="140" height="20" as="geometry" />
        </mxCell>
        <mxCell id="DRS--LTavIpqSw1HXCrO-23" value="+email: email" style="text;html=1;strokeColor=none;fillColor=none;align=left;verticalAlign=middle;spacingLeft=4;spacingRight=4;overflow=hidden;rotatable=0;points=[[0,0.5],[1,0.5]];portConstraint=eastwest;fontColor=#808080;whiteSpace=wrap;" vertex="1" parent="DRS--LTavIpqSw1HXCrO-9">
          <mxGeometry y="200" width="140" height="20" as="geometry" />
        </mxCell>
        <mxCell id="DRS--LTavIpqSw1HXCrO-24" value="+occupation: string" style="text;html=1;strokeColor=none;fillColor=none;align=left;verticalAlign=middle;spacingLeft=4;spacingRight=4;overflow=hidden;rotatable=0;points=[[0,0.5],[1,0.5]];portConstraint=eastwest;fontColor=#808080;whiteSpace=wrap;" vertex="1" parent="DRS--LTavIpqSw1HXCrO-9">
          <mxGeometry y="220" width="140" height="20" as="geometry" />
        </mxCell>
        <mxCell id="DRS--LTavIpqSw1HXCrO-25" value="+role: enum" style="text;html=1;strokeColor=none;fillColor=none;align=left;verticalAlign=middle;spacingLeft=4;spacingRight=4;overflow=hidden;rotatable=0;points=[[0,0.5],[1,0.5]];portConstraint=eastwest;fontColor=#808080;whiteSpace=wrap;" vertex="1" parent="DRS--LTavIpqSw1HXCrO-9">
          <mxGeometry y="240" width="140" height="20" as="geometry" />
        </mxCell>
        <mxCell id="DRS--LTavIpqSw1HXCrO-14" value="" style="line;strokeWidth=1;fillColor=none;align=left;verticalAlign=middle;spacingTop=-1;spacingLeft=3;spacingRight=3;rotatable=0;labelPosition=right;points=[];portConstraint=eastwest;" vertex="1" parent="DRS--LTavIpqSw1HXCrO-9">
          <mxGeometry y="260" width="140" height="8" as="geometry" />
        </mxCell>
        <mxCell id="DRS--LTavIpqSw1HXCrO-15" value="operación" style="text;html=1;strokeColor=none;fillColor=none;align=center;verticalAlign=middle;spacingLeft=4;spacingRight=4;overflow=hidden;rotatable=0;points=[[0,0.5],[1,0.5]];portConstraint=eastwest;whiteSpace=wrap;" vertex="1" parent="DRS--LTavIpqSw1HXCrO-9">
          <mxGeometry y="268" width="140" height="20" as="geometry" />
        </mxCell>
        <mxCell id="DRS--LTavIpqSw1HXCrO-16" value="post()" style="text;html=1;strokeColor=none;fillColor=none;align=left;verticalAlign=middle;spacingLeft=4;spacingRight=4;overflow=hidden;rotatable=0;points=[[0,0.5],[1,0.5]];portConstraint=eastwest;whiteSpace=wrap;" vertex="1" parent="DRS--LTavIpqSw1HXCrO-9">
          <mxGeometry y="288" width="140" height="20" as="geometry" />
        </mxCell>
        <mxCell id="DRS--LTavIpqSw1HXCrO-26" value="get()" style="text;html=1;strokeColor=none;fillColor=none;align=left;verticalAlign=middle;spacingLeft=4;spacingRight=4;overflow=hidden;rotatable=0;points=[[0,0.5],[1,0.5]];portConstraint=eastwest;whiteSpace=wrap;" vertex="1" parent="DRS--LTavIpqSw1HXCrO-9">
          <mxGeometry y="308" width="140" height="20" as="geometry" />
        </mxCell>
        <mxCell id="DRS--LTavIpqSw1HXCrO-27" style="edgeStyle=orthogonalEdgeStyle;rounded=0;orthogonalLoop=1;jettySize=auto;html=1;endArrow=none;endFill=0;startArrow=diamondThin;startFill=1;endSize=6;startSize=14;" edge="1" parent="1" source="DRS--LTavIpqSw1HXCrO-3" target="DRS--LTavIpqSw1HXCrO-19">
          <mxGeometry relative="1" as="geometry" />
        </mxCell>
        <mxCell id="DRS--LTavIpqSw1HXCrO-29" value="+conexión" style="text;html=1;strokeColor=none;fillColor=none;align=center;verticalAlign=middle;whiteSpace=wrap;rounded=0;" vertex="1" parent="1">
          <mxGeometry x="340" y="240" width="60" height="30" as="geometry" />
        </mxCell>
        <mxCell id="DRS--LTavIpqSw1HXCrO-30" value="&lt;b&gt;Clase&lt;/b&gt;" style="swimlane;fontStyle=0;align=center;verticalAlign=top;childLayout=stackLayout;horizontal=1;startSize=60;horizontalStack=0;resizeParent=1;resizeParentMax=0;resizeLast=0;collapsible=0;marginBottom=0;html=1;whiteSpace=wrap;" vertex="1" parent="1">
          <mxGeometry x="190" y="520" width="140" height="148" as="geometry" />
        </mxCell>
        <mxCell id="DRS--LTavIpqSw1HXCrO-31" value="Atributos" style="text;html=1;strokeColor=none;fillColor=none;align=center;verticalAlign=middle;spacingLeft=4;spacingRight=4;overflow=hidden;rotatable=0;points=[[0,0.5],[1,0.5]];portConstraint=eastwest;whiteSpace=wrap;" vertex="1" parent="DRS--LTavIpqSw1HXCrO-30">
          <mxGeometry y="60" width="140" height="20" as="geometry" />
        </mxCell>
        <mxCell id="DRS--LTavIpqSw1HXCrO-32" value="+id: integer" style="text;html=1;strokeColor=none;fillColor=none;align=left;verticalAlign=middle;spacingLeft=4;spacingRight=4;overflow=hidden;rotatable=0;points=[[0,0.5],[1,0.5]];portConstraint=eastwest;whiteSpace=wrap;" vertex="1" parent="DRS--LTavIpqSw1HXCrO-30">
          <mxGeometry y="80" width="140" height="20" as="geometry" />
        </mxCell>
        <mxCell id="DRS--LTavIpqSw1HXCrO-33" value="" style="line;strokeWidth=1;fillColor=none;align=left;verticalAlign=middle;spacingTop=-1;spacingLeft=3;spacingRight=3;rotatable=0;labelPosition=right;points=[];portConstraint=eastwest;" vertex="1" parent="DRS--LTavIpqSw1HXCrO-30">
          <mxGeometry y="100" width="140" height="8" as="geometry" />
        </mxCell>
        <mxCell id="DRS--LTavIpqSw1HXCrO-34" value="operación" style="text;html=1;strokeColor=none;fillColor=none;align=center;verticalAlign=middle;spacingLeft=4;spacingRight=4;overflow=hidden;rotatable=0;points=[[0,0.5],[1,0.5]];portConstraint=eastwest;whiteSpace=wrap;" vertex="1" parent="DRS--LTavIpqSw1HXCrO-30">
          <mxGeometry y="108" width="140" height="20" as="geometry" />
        </mxCell>
        <mxCell id="DRS--LTavIpqSw1HXCrO-35" value="get()" style="text;html=1;strokeColor=none;fillColor=none;align=left;verticalAlign=middle;spacingLeft=4;spacingRight=4;overflow=hidden;rotatable=0;points=[[0,0.5],[1,0.5]];portConstraint=eastwest;whiteSpace=wrap;" vertex="1" parent="DRS--LTavIpqSw1HXCrO-30">
          <mxGeometry y="128" width="140" height="20" as="geometry" />
        </mxCell>
        <mxCell id="DRS--LTavIpqSw1HXCrO-36" style="edgeStyle=orthogonalEdgeStyle;rounded=0;orthogonalLoop=1;jettySize=auto;html=1;entryX=0;entryY=0.5;entryDx=0;entryDy=0;endArrow=none;endFill=0;" edge="1" parent="1" source="DRS--LTavIpqSw1HXCrO-19" target="DRS--LTavIpqSw1HXCrO-32">
          <mxGeometry relative="1" as="geometry" />
        </mxCell>
        <mxCell id="DRS--LTavIpqSw1HXCrO-37" value="+asociación" style="text;html=1;strokeColor=none;fillColor=none;align=center;verticalAlign=middle;whiteSpace=wrap;rounded=0;" vertex="1" parent="1">
          <mxGeometry x="90" y="430" width="60" height="30" as="geometry" />
        </mxCell>
        <mxCell id="DRS--LTavIpqSw1HXCrO-38" value="&lt;b&gt;Método&lt;/b&gt;" style="swimlane;fontStyle=0;align=center;verticalAlign=top;childLayout=stackLayout;horizontal=1;startSize=60;horizontalStack=0;resizeParent=1;resizeParentMax=0;resizeLast=0;collapsible=0;marginBottom=0;html=1;whiteSpace=wrap;" vertex="1" parent="1">
          <mxGeometry x="440" y="526" width="390" height="168" as="geometry" />
        </mxCell>
        <mxCell id="DRS--LTavIpqSw1HXCrO-39" value="solicitud" style="text;html=1;strokeColor=none;fillColor=none;align=center;verticalAlign=middle;spacingLeft=4;spacingRight=4;overflow=hidden;rotatable=0;points=[[0,0.5],[1,0.5]];portConstraint=eastwest;whiteSpace=wrap;" vertex="1" parent="DRS--LTavIpqSw1HXCrO-38">
          <mxGeometry y="60" width="390" height="20" as="geometry" />
        </mxCell>
        <mxCell id="DRS--LTavIpqSw1HXCrO-40" value="get(&#39;id&#39;)" style="text;html=1;strokeColor=none;fillColor=none;align=left;verticalAlign=middle;spacingLeft=4;spacingRight=4;overflow=hidden;rotatable=0;points=[[0,0.5],[1,0.5]];portConstraint=eastwest;whiteSpace=wrap;" vertex="1" parent="DRS--LTavIpqSw1HXCrO-38">
          <mxGeometry y="80" width="390" height="20" as="geometry" />
        </mxCell>
        <mxCell id="DRS--LTavIpqSw1HXCrO-41" value="" style="line;strokeWidth=1;fillColor=none;align=left;verticalAlign=middle;spacingTop=-1;spacingLeft=3;spacingRight=3;rotatable=0;labelPosition=right;points=[];portConstraint=eastwest;" vertex="1" parent="DRS--LTavIpqSw1HXCrO-38">
          <mxGeometry y="100" width="390" height="8" as="geometry" />
        </mxCell>
        <mxCell id="DRS--LTavIpqSw1HXCrO-42" value="operación" style="text;html=1;strokeColor=none;fillColor=none;align=center;verticalAlign=middle;spacingLeft=4;spacingRight=4;overflow=hidden;rotatable=0;points=[[0,0.5],[1,0.5]];portConstraint=eastwest;whiteSpace=wrap;" vertex="1" parent="DRS--LTavIpqSw1HXCrO-38">
          <mxGeometry y="108" width="390" height="20" as="geometry" />
        </mxCell>
        <mxCell id="DRS--LTavIpqSw1HXCrO-44" value="update(&#39;names&#39;,&#39;lastnames&#39;,&#39;typeid&#39;,&#39;numberid&#39;,&#39;telephone&#39;,&#39;email&#39;,&#39;occupation&#39;,&#39;role&#39;)" style="text;html=1;strokeColor=none;fillColor=none;align=left;verticalAlign=middle;spacingLeft=4;spacingRight=4;overflow=hidden;rotatable=0;points=[[0,0.5],[1,0.5]];portConstraint=eastwest;whiteSpace=wrap;fontSize=10;" vertex="1" parent="DRS--LTavIpqSw1HXCrO-38">
          <mxGeometry y="128" width="390" height="20" as="geometry" />
        </mxCell>
        <mxCell id="DRS--LTavIpqSw1HXCrO-45" value="delete(&#39;id&#39;)" style="text;html=1;strokeColor=none;fillColor=none;align=left;verticalAlign=middle;spacingLeft=4;spacingRight=4;overflow=hidden;rotatable=0;points=[[0,0.5],[1,0.5]];portConstraint=eastwest;whiteSpace=wrap;fontSize=10;" vertex="1" parent="DRS--LTavIpqSw1HXCrO-38">
          <mxGeometry y="148" width="390" height="20" as="geometry" />
        </mxCell>
        <mxCell id="DRS--LTavIpqSw1HXCrO-48" style="edgeStyle=orthogonalEdgeStyle;rounded=0;orthogonalLoop=1;jettySize=auto;html=1;exitX=1;exitY=0.5;exitDx=0;exitDy=0;entryX=0;entryY=0.5;entryDx=0;entryDy=0;startArrow=diamondThin;startFill=1;endSize=10;startSize=14;endArrow=none;endFill=0;" edge="1" parent="1" source="DRS--LTavIpqSw1HXCrO-32" target="DRS--LTavIpqSw1HXCrO-38">
          <mxGeometry relative="1" as="geometry" />
        </mxCell>
        <mxCell id="DRS--LTavIpqSw1HXCrO-49" value="+modificar" style="text;html=1;strokeColor=none;fillColor=none;align=center;verticalAlign=middle;whiteSpace=wrap;rounded=0;" vertex="1" parent="1">
          <mxGeometry x="350" y="570" width="60" height="30" as="geometry" />
        </mxCell>
      </root>
    </mxGraphModel>
  </diagram>
</mxfile>
